<svg width="186" height="26" viewBox="0 0 186 26" fill="none" xmlns="http://www.w3.org/2000/svg">
<rect x="14" width="61" height="2" rx="1" fill="#B6F40B"/>
<path d="M178.287 25.9653C176.626 25.9653 175.147 25.676 173.85 25.0975C172.553 24.5189 171.529 23.7321 170.778 22.737C170.027 21.7187 169.606 20.5848 169.515 19.3351H175.283C175.351 20.0062 175.659 20.5501 176.205 20.9666C176.751 21.3832 177.422 21.5915 178.218 21.5915C178.946 21.5915 179.504 21.4526 179.891 21.1749C180.3 20.8741 180.505 20.4922 180.505 20.0294C180.505 19.474 180.221 19.069 179.652 18.8144C179.083 18.5367 178.161 18.2359 176.887 17.9119C175.522 17.5879 174.384 17.2523 173.474 16.9052C172.564 16.5349 171.779 15.968 171.119 15.2043C170.459 14.4175 170.129 13.3645 170.129 12.0454C170.129 10.9346 170.425 9.92792 171.017 9.02538C171.631 8.0997 172.519 7.37073 173.679 6.83847C174.862 6.3062 176.262 6.04007 177.877 6.04007C180.266 6.04007 182.143 6.64176 183.509 7.84514C184.897 9.04852 185.693 10.6453 185.898 12.6355H180.505C180.414 11.9644 180.118 11.4321 179.618 11.0387C179.14 10.6453 178.503 10.4486 177.706 10.4486C177.024 10.4486 176.5 10.5875 176.136 10.8652C175.772 11.1197 175.59 11.4784 175.59 11.9413C175.59 12.4967 175.875 12.9132 176.444 13.1909C177.035 13.4686 177.945 13.7463 179.174 14.024C180.585 14.3943 181.734 14.7646 182.621 15.1349C183.509 15.482 184.282 16.0605 184.942 16.8705C185.625 17.6573 185.977 18.7219 186 20.0641C186 21.198 185.682 22.2163 185.044 23.1188C184.43 23.9982 183.531 24.6925 182.348 25.2016C181.188 25.7107 179.834 25.9653 178.287 25.9653Z" fill="#0B0925"/>
<path d="M167.46 15.6903C167.46 16.2457 167.426 16.8242 167.358 17.4259H154.149C154.24 18.6293 154.616 19.555 155.276 20.2029C155.958 20.8278 156.789 21.1402 157.767 21.1402C159.223 21.1402 160.236 20.5154 160.805 19.2657H167.016C166.698 20.5385 166.118 21.684 165.276 22.7023C164.457 23.7205 163.421 24.5189 162.17 25.0975C160.918 25.676 159.519 25.9653 157.972 25.9653C156.106 25.9653 154.445 25.5603 152.989 24.7503C151.533 23.9404 150.395 22.7833 149.576 21.279C148.757 19.7748 148.347 18.016 148.347 16.0027C148.347 13.9893 148.745 12.2305 149.542 10.7263C150.361 9.22209 151.499 8.06499 152.955 7.25502C154.411 6.44505 156.083 6.04007 157.972 6.04007C159.815 6.04007 161.453 6.43348 162.887 7.22031C164.32 8.00714 165.435 9.12952 166.231 10.5875C167.051 12.0454 167.46 13.7463 167.46 15.6903ZM161.487 14.1282C161.487 13.1099 161.146 12.3 160.463 11.6983C159.781 11.0966 158.928 10.7957 157.904 10.7957C156.925 10.7957 156.095 11.085 155.412 11.6636C154.752 12.2421 154.343 13.0637 154.183 14.1282H161.487Z" fill="#0B0925"/>
<path d="M146.257 20.6542V25.6876H143.287C141.171 25.6876 139.521 25.1669 138.338 24.1255C137.155 23.061 136.564 21.3369 136.564 18.9533V11.247H134.243V6.31776H136.564V1.5968H142.4V6.31776H146.222V11.247H142.4V19.0227C142.4 19.6012 142.536 20.0178 142.809 20.2724C143.082 20.5269 143.537 20.6542 144.175 20.6542H146.257Z" fill="#0B0925"/>
<path d="M122.58 25.9653C120.714 25.9653 119.03 25.5603 117.529 24.7503C116.05 23.9404 114.878 22.7833 114.013 21.279C113.171 19.7748 112.75 18.016 112.75 16.0027C112.75 14.0125 113.183 12.2653 114.047 10.761C114.912 9.23366 116.095 8.06499 117.597 7.25502C119.099 6.44505 120.782 6.04007 122.648 6.04007C124.514 6.04007 126.198 6.44505 127.7 7.25502C129.201 8.06499 130.384 9.23366 131.249 10.761C132.114 12.2653 132.546 14.0125 132.546 16.0027C132.546 17.9929 132.102 19.7517 131.215 21.279C130.35 22.7833 129.156 23.9404 127.631 24.7503C126.13 25.5603 124.446 25.9653 122.58 25.9653ZM122.58 20.8278C123.695 20.8278 124.639 20.4112 125.413 19.5781C126.209 18.745 126.607 17.5532 126.607 16.0027C126.607 14.4522 126.221 13.2604 125.447 12.4272C124.696 11.5941 123.763 11.1776 122.648 11.1776C121.511 11.1776 120.566 11.5941 119.815 12.4272C119.065 13.2372 118.689 14.429 118.689 16.0027C118.689 17.5532 119.053 18.745 119.781 19.5781C120.532 20.4112 121.465 20.8278 122.58 20.8278Z" fill="#B6F40B"/>
<path d="M109.68 25.6876H103.844L94.0829 10.6569V25.6876H88.2466V1.31909H94.0829L103.844 16.4192V1.31909H109.68V25.6876Z" fill="#0B0925"/>
<path d="M83.4652 0V25.6876H80.3594V0H83.4652Z" fill="#0B0925"/>
<path d="M56.1343 16.1068C56.1343 14.1629 56.5211 12.462 57.2947 11.004C58.0683 9.52293 59.1264 8.3774 60.4688 7.56743C61.834 6.75746 63.3471 6.35248 65.0081 6.35248C66.6464 6.35248 68.0685 6.71118 69.2744 7.42858C70.4804 8.14598 71.3791 9.04852 71.9707 10.1362V6.66489H75.1107V25.6876H71.9707V22.1469C71.3564 23.2577 70.4349 24.1834 69.2062 24.9239C68.0002 25.6413 66.5895 26 64.974 26C63.313 26 61.8113 25.5834 60.4688 24.7503C59.1264 23.9172 58.0683 22.7486 57.2947 21.2443C56.5211 19.7401 56.1343 18.0276 56.1343 16.1068ZM71.9707 16.1415C71.9707 14.7067 71.6863 13.4571 71.1175 12.3925C70.5486 11.328 69.775 10.518 68.7966 9.96262C67.841 9.38407 66.7829 9.0948 65.6225 9.0948C64.4621 9.0948 63.404 9.3725 62.4484 9.92791C61.4927 10.4833 60.7305 11.2933 60.1616 12.3578C59.5928 13.4223 59.3084 14.672 59.3084 16.1068C59.3084 17.5648 59.5928 18.8376 60.1616 19.9252C60.7305 20.9898 61.4927 21.8113 62.4484 22.3899C63.404 22.9453 64.4621 23.223 65.6225 23.223C66.7829 23.223 67.841 22.9453 68.7966 22.3899C69.775 21.8113 70.5486 20.9898 71.1175 19.9252C71.6863 18.8376 71.9707 17.5763 71.9707 16.1415Z" fill="#0B0925"/>
<path d="M35.4028 16.1415C35.4028 14.1745 35.7896 12.462 36.5633 11.004C37.3369 9.52293 38.4063 8.3774 39.7715 7.56743C41.1595 6.75746 42.7408 6.35248 44.5156 6.35248C46.8137 6.35248 48.7023 6.91946 50.1812 8.05341C51.683 9.18737 52.6727 10.761 53.1506 12.7744H49.8058C49.4873 11.6173 48.8615 10.7032 47.9286 10.032C47.0185 9.36093 45.8808 9.02538 44.5156 9.02538C42.7408 9.02538 41.3074 9.65021 40.2152 10.8999C39.123 12.1264 38.5769 13.8736 38.5769 16.1415C38.5769 18.4326 39.123 20.2029 40.2152 21.4526C41.3074 22.7023 42.7408 23.3271 44.5156 23.3271C45.8808 23.3271 47.0185 23.0031 47.9286 22.3551C48.8388 21.7072 49.4645 20.7815 49.8058 19.5781H53.1506C52.65 21.522 51.6488 23.0841 50.1471 24.2643C48.6454 25.4214 46.7682 26 44.5156 26C42.7408 26 41.1595 25.595 39.7715 24.785C38.4063 23.9751 37.3369 22.8295 36.5633 21.3485C35.7896 19.8674 35.4028 18.1317 35.4028 16.1415Z" fill="#0B0925"/>
<path d="M22.8889 26C21.1368 26 19.5441 25.595 18.1106 24.785C16.6999 23.9751 15.585 22.8295 14.7658 21.3485C13.9695 19.8442 13.5713 18.1086 13.5713 16.1415C13.5713 14.1976 13.9809 12.4851 14.8 11.004C15.6419 9.49978 16.7795 8.35426 18.213 7.56743C19.6465 6.75746 21.2506 6.35248 23.0254 6.35248C24.8001 6.35248 26.4043 6.75746 27.8377 7.56743C29.2712 8.35426 30.3975 9.48821 31.2166 10.9693C32.0585 12.4504 32.4795 14.1745 32.4795 16.1415C32.4795 18.1086 32.0471 19.8442 31.1825 21.3485C30.3406 22.8295 29.1916 23.9751 27.7353 24.785C26.2791 25.595 24.6636 26 22.8889 26ZM22.8889 23.223C24.0038 23.223 25.0504 22.9568 26.0288 22.4246C27.0072 21.8923 27.7922 21.0939 28.3838 20.0294C28.9982 18.9648 29.3053 17.6689 29.3053 16.1415C29.3053 14.6142 29.0095 13.3182 28.418 12.2537C27.8264 11.1891 27.0527 10.4023 26.0971 9.8932C25.1414 9.36093 24.1062 9.0948 22.9912 9.0948C21.8536 9.0948 20.8069 9.36093 19.8513 9.8932C18.9184 10.4023 18.1675 11.1891 17.5987 12.2537C17.0298 13.3182 16.7454 14.6142 16.7454 16.1415C16.7454 17.692 17.0184 18.9996 17.5645 20.0641C18.1334 21.1286 18.8842 21.927 19.8171 22.4593C20.75 22.9684 21.7739 23.223 22.8889 23.223Z" fill="#0B0925"/>
<path d="M3.10585 23.1188H11.4336V25.6876H0V1.49268H3.10585V23.1188Z" fill="#0B0925"/>
</svg>
